<?xml version="1.0" encoding="utf-8"?>
<!-- Generator: Adobe Illustrator 28.0.0, SVG Export Plug-In . SVG Version: 6.00 Build 0)  -->
<svg version="1.1" id="Layer_1" xmlns="http://www.w3.org/2000/svg" xmlns:xlink="http://www.w3.org/1999/xlink" x="0px" y="0px"
	 viewBox="0 0 2552 1212.5" enable-background="new 0 0 2552 1212.5" xml:space="preserve">
<g>
	<path fill="none" stroke="#000000" stroke-width="9.9457" stroke-miterlimit="10" d="M261.673,284.603
		c-23.393,4.136-67.606,10.61-106.088,36.468C75.69,374.756,52.328,457.114,46.182,483.518
		c-4.266,18.329-17.418,78.319,6.63,145.871c7.271,20.423,17.293,48.575,43.098,72.935c52.843,49.884,127.274,41.769,142.556,39.783
		"/>
	<path fill="none" stroke="#000000" stroke-width="9.9457" stroke-miterlimit="10" d="M105.856,712.27
		c2.507,18.475,11.108,64.122,23.207,92.827c21.976,52.141,53.732,83.887,69.62,99.457
		c47.898,46.941,131.198,96.867,235.382,102.773c16.513,0.936,211.642,8.929,308.318-135.925
		c27.216-40.779,38.859-82.029,44.08-112.947c1.737-10.285,6.078-19.973,12.893-27.869c9.288-10.762,19.657-24.557,29.223-41.523
		c48.551-86.109,32.485-175.954,26.522-202.23c-30.41-133.997-157.245-197.368-202.771-216.079
		c-10.152-4.173-18.582-11.54-24.401-20.846c-96.937-155.019-353.874-57.447-382.833,74.478
		c-4.092,18.643-10.417,43.738-6.63,76.251"/>
	<path fill="none" stroke="#000000" stroke-width="9.9457" stroke-miterlimit="10" d="M381.022,536.561
		c23.18,26.988,54.743,58.817,96.142,89.512c33.357,24.732,65.306,42.947,92.827,56.359"/>
	<path fill="none" stroke="#000000" stroke-width="9.9457" stroke-miterlimit="10" d="M546.784,519.985
		c-15.554,26.302-37.036,57.533-66.305,89.512c-33.998,37.144-68.171,64.01-96.142,82.881"/>
	<path fill="none" stroke="#000000" stroke-width="9.9457" stroke-miterlimit="10" d="M533.523,178.515
		c0,0,93.719,17.572,135.263,69.233c5.288,6.575,12.245,11.583,20.305,14.078c20.231,6.261,45.903,16.291,73.184,32.723
		c34.941,21.047,119.053,80.625,149.186,192.284c6.194,22.952,25.14,97.295-6.63,182.339
		c-15.293,40.937-37.314,70.905-54.529,90.313c-5.262,5.932-8.55,13.321-9.275,21.218c-1.44,15.686-4.777,35.646-12.446,57.547
		c-35.746,102.082-131.539,149.047-172.393,169.078c-99.673,48.868-190.275,42.304-215.491,39.783
		c-76.503-7.65-130.729-36.045-149.186-46.413c-78.628-44.171-121.013-122.079-139.24-152.501"/>
	<path fill="none" stroke="#000000" stroke-width="9.9457" stroke-miterlimit="10" d="M732.438,208.352
		c9.384,2.356,19.42,5.565,29.837,9.946c42.181,17.738,69.972,46.002,86.196,66.305"/>
	<path fill="none" stroke="#000000" stroke-width="9.9457" stroke-miterlimit="10" d="M2164.624,82.373
		c9.384,2.356,19.42,5.565,29.837,9.946c42.181,17.738,69.972,46.002,86.197,66.305"/>
	<path fill="none" stroke="#000000" stroke-width="9.9457" stroke-miterlimit="10" d="M682.709,161.939
		c7.244,0.626,15.016,1.675,23.207,3.315c22.862,4.58,41.788,12.333,56.359,19.891"/>
	<path fill="none" stroke="#000000" stroke-width="9.9457" stroke-miterlimit="10" d="M2230.559,59.668
		c6.606,3.037,13.567,6.649,20.722,10.961c19.971,12.035,35.164,25.726,46.324,37.764"/>
	<path fill="none" stroke="#000000" stroke-width="9.1961" stroke-miterlimit="10" d="M1350.76,1157.565
		c7.197,0.889,15.003,1.529,23.352,1.757c23.305,0.637,43.498-2.134,59.408-5.59"/>
	<path fill="none" stroke="#000000" stroke-width="9.9457" stroke-miterlimit="10" d="M109.172,904.554
		c3.518,7.453,7.864,15.282,13.261,23.207c23.7,34.799,55.383,53.407,76.251,62.99"/>
	<path fill="none" stroke="#000000" stroke-width="9.9457" stroke-miterlimit="10" d="M2459.819,1017.272
		c-3.518,7.453-7.864,15.282-13.261,23.207c-23.7,34.799-55.383,53.407-76.251,62.99"/>
	<path fill="none" stroke="#000000" stroke-width="9.1961" stroke-miterlimit="10" d="M1455.526,1115.072
		c-7.52,2.883-15.913,5.55-25.168,7.694c-40.637,9.416-76.805,3.878-98.888-1.505"/>
	<path fill="none" stroke="#000000" stroke-width="9.9457" stroke-miterlimit="10" d="M99.226,974.174
		c1.857,5.632,6.289,16.53,16.576,26.522c11.485,11.156,24.032,15.126,29.837,16.576"/>
	<path fill="none" stroke="#000000" stroke-width="9.9404" stroke-miterlimit="10" d="M1327.645,859.367
		c5.577-144.627,63.312-183.213,177.332-222.542c114.02-39.329,232.346,4.679,243.942,75.663s-8.605,111.323-59.603,181.778
		c-14.166,19.571-34.485,37.393-56.446,52.928c-73.661,52.107-310.105,131.267-472.296,8.309
		c-165.914-125.78-299.005-526.766,52.18-719.472c118.108-64.809,179.828-74.049,258.968-69.646
		c228.305,12.702,369.517,253.661,238.637,334.269c-117.266,72.224-223.61-53.1-236.48-100.785
		c-0.522-1.934-3.373-1.475-3.295,0.526l0.774,19.932c1.015,26.15-15.551,49.805-40.497,57.714
		c-48.165,15.271-93.937,2.555-121.654-9.238c-11.908-5.067-24.974,4.104-24.314,17.029c0.893,17.478,1.008,39.902-1.975,60.633
		c-3.231,22.453-16.578,42.18-36.374,53.258l-73.999,41.411"/>
	<path fill="none" stroke="#000000" stroke-width="9.9404" stroke-miterlimit="10" d="M1740.273,689.063
		c44.122,34.895,41.062,102.997,21.234,156.065c-26.446,63.021-66.166,116.113-125.796,152.653
		c-53.008,29.901-109.347,46.545-169.01,56.562c-82.865,13.361-162.439,6.826-238.733-29.551
		c-92.887-49.617-160.278-141.976-193.842-239.587"/>
	<path fill="none" stroke="#000000" stroke-width="9.9404" stroke-miterlimit="10" d="M1392.326,693.319
		c0,0-57.605-100.135-146.642-94.458"/>
	<g>
		<path fill="none" stroke="#000000" stroke-width="9.3549" stroke-miterlimit="10" d="M1760.164,410.582
			c7.643,55.426-19.891,145.871-76.251,155.817c-68.234,10.918-164.352-60.019-191.054-92.139c-3.038-3.655-8.954-1.239-8.573,3.499
			c0.642,7.998,1.054,15.995-0.945,23.993c-3.315,9.946-13.261,19.892-19.891,26.522c-46.413,29.837-96.142,3.315-142.556-3.315
			c-6.63,0-13.261,6.63-13.261,9.946c-3.315,33.152,11.443,42.705-8.288,71.278"/>
	</g>
	<path fill="none" stroke="#000000" stroke-width="9.9457" stroke-miterlimit="10" d="M2482.888,1061.048
		c-1.857,5.632-6.289,16.53-16.576,26.522c-11.485,11.156-24.032,15.126-29.837,16.576"/>
	<path fill="none" stroke="#000000" stroke-width="9.6142" stroke-miterlimit="10" d="M2441.948,866.421l-4.573-166.395
		c-1.419-51.407-44.721-86.162-85.31-68.438c-52.322,22.897-105.179,38.13-147.756,38.13c-41.125,0-57.935-27.722-57.935-69.321
		c0-86.824,30.718-210.295,41.378-340.263c4.258-51.786-30.245-96.538-73.988-96.538h-164.786
		c-38.729,0-72.096,25.325-89.631,62.382c16.463-13.467,36.458-21.383,58.093-21.383h164.786c43.743,0,78.246,44.752,73.988,96.538
		c-10.66,129.968-41.378,253.439-41.378,340.263c0,41.599,16.81,69.321,57.935,69.321c42.576,0,95.434-15.233,147.756-38.13
		c40.589-17.724,83.891,17.031,85.31,68.438l4.573,166.395c0.662,23.969-4.384,46.55-13.656,65.914
		C2425.012,949.965,2443.177,910.574,2441.948,866.421z"/>
	<path fill="none" stroke="#000000" stroke-width="9.9457" stroke-miterlimit="10" d="M2410.41,907.42
		c0.662,23.969-4.384,46.55-13.656,65.914c-18.071,37.72-52.195,63.265-91.492,63.265h-253.47
		c-76.828,0-141.495-57.801-149.714-134.187c-2.168-20.151-3.228-41.602-2.674-64.164c2.901-118.108,46.722-132,39.783-235.383
		c-3.517-52.402-10.801-160.94-72.935-248.643c-13.052-18.423-46.325-61.053-33.152-96.142c6.13-16.329,21.279-28.156,26.246-32.102
		c22.51-17.883,47.177-20.788,58.093-21.383h164.786c43.743,0,78.246,44.752,73.988,96.538
		c-10.66,129.968-41.378,253.439-41.378,340.263c0,41.599,16.81,69.321,57.936,69.321c42.576,0,95.434-15.233,147.756-38.129
		c40.589-17.724,83.891,17.031,85.31,68.438L2410.41,907.42z"/>
	
		<line fill="none" stroke="#000000" stroke-width="9.6142" stroke-miterlimit="10" x1="2035.33" y1="904.554" x2="1982.286" y2="960.913"/>
	
		<line fill="none" stroke="#000000" stroke-width="9.6142" stroke-miterlimit="10" x1="1991.658" y1="904.554" x2="2035.33" y2="960.913"/>
</g>
<g>
	<g>
		<path d="M2316.607,674.848c4.022,0,4.029-6.251,0-6.251C2312.585,668.597,2312.578,674.848,2316.607,674.848L2316.607,674.848z"/>
	</g>
</g>
</svg>
