<?xml version="1.0" encoding="UTF-8"?>
<svg id="Layer_1" data-name="Layer 1" xmlns="http://www.w3.org/2000/svg" viewBox="0 0 2659.23 1108.86">
  <defs>
    <style>
      .cls-1 {
        stroke-width: 9.2px;
      }

      .cls-1, .cls-2, .cls-3, .cls-4, .cls-5 {
        fill: none;
        stroke: #000;
        stroke-miterlimit: 10;
      }

      .cls-2 {
        stroke-width: 9.35px;
      }

      .cls-3 {
        stroke-width: 9.94px;
      }

      .cls-4 {
        stroke-width: 9.95px;
      }

      .cls-5 {
        stroke-width: 9.61px;
      }

      .cls-6 {
        stroke-width: 0px;
      }
    </style>
  </defs>
  <g>
    <path class="cls-4" d="m227.9,229.45c-23.39,4.14-67.61,10.61-106.09,36.47C41.92,319.61,18.55,401.96,12.41,428.37c-4.27,18.33-17.42,78.32,6.63,145.87,7.27,20.42,17.29,48.57,43.1,72.94,52.84,49.88,127.27,41.77,142.56,39.78"/>
    <path class="cls-4" d="m72.08,657.12c2.51,18.48,11.11,64.12,23.21,92.83,21.98,52.14,53.73,83.89,69.62,99.46,47.9,46.94,131.2,96.87,235.38,102.77,16.51.94,211.64,8.93,308.32-135.93,27.22-40.78,38.86-82.03,44.08-112.95,1.74-10.28,6.08-19.97,12.89-27.87,9.29-10.76,19.66-24.56,29.22-41.52,48.55-86.11,32.49-175.95,26.52-202.23-30.41-134-157.25-197.37-202.77-216.08-10.15-4.17-18.58-11.54-24.4-20.85-96.94-155.02-353.87-57.45-382.83,74.48-4.09,18.64-10.42,43.74-6.63,76.25"/>
    <path class="cls-4" d="m347.25,481.41c23.18,26.99,54.74,58.82,96.14,89.51,33.36,24.73,65.31,42.95,92.83,56.36"/>
    <path class="cls-4" d="m513.01,464.84c-15.55,26.3-37.04,57.53-66.3,89.51-34,37.14-68.17,64.01-96.14,82.88"/>
    <path class="cls-4" d="m499.75,123.37s93.72,17.57,135.26,69.23c5.29,6.58,12.24,11.58,20.3,14.08,20.23,6.26,45.9,16.29,73.18,32.72,34.94,21.05,119.05,80.62,149.19,192.28,6.19,22.95,25.14,97.3-6.63,182.34-15.29,40.94-37.31,70.9-54.53,90.31-5.26,5.93-8.55,13.32-9.27,21.22-1.44,15.69-4.78,35.65-12.45,57.55-35.75,102.08-131.54,149.05-172.39,169.08-99.67,48.87-190.28,42.3-215.49,39.78-76.5-7.65-130.73-36.04-149.19-46.41-78.63-44.17-121.01-122.08-139.24-152.5"/>
    <path class="cls-4" d="m698.66,153.2c9.38,2.36,19.42,5.57,29.84,9.95,42.18,17.74,69.97,46,86.2,66.3"/>
    <path class="cls-4" d="m2130.85,27.22c9.38,2.36,19.42,5.57,29.84,9.95,42.18,17.74,69.97,46,86.2,66.3"/>
    <path class="cls-4" d="m648.94,106.79c7.24.63,15.02,1.67,23.21,3.32,22.86,4.58,41.79,12.33,56.36,19.89"/>
    <path class="cls-4" d="m2196.79,4.52c6.61,3.04,13.57,6.65,20.72,10.96,19.97,12.03,35.16,25.73,46.32,37.76"/>
    <path class="cls-1" d="m1316.99,1102.41c7.2.89,15,1.53,23.35,1.76,23.3.64,43.5-2.13,59.41-5.59"/>
    <path class="cls-4" d="m75.4,849.4c3.52,7.45,7.86,15.28,13.26,23.21,23.7,34.8,55.38,53.41,76.25,62.99"/>
    <path class="cls-4" d="m2426.05,962.12c-3.52,7.45-7.86,15.28-13.26,23.21-23.7,34.8-55.38,53.41-76.25,62.99"/>
    <path class="cls-1" d="m1421.75,1059.92c-7.52,2.88-15.91,5.55-25.17,7.69-40.64,9.42-76.81,3.88-98.89-1.5"/>
    <path class="cls-4" d="m65.45,919.02c1.86,5.63,6.29,16.53,16.58,26.52,11.49,11.16,24.03,15.13,29.84,16.58"/>
    <path class="cls-3" d="m1293.87,804.22c5.58-144.63,63.31-183.21,177.33-222.54,114.02-39.33,232.35,4.68,243.94,75.66,11.6,70.98-8.61,111.32-59.6,181.78-14.17,19.57-34.49,37.39-56.45,52.93-73.66,52.11-310.11,131.27-472.3,8.31-165.91-125.78-299-526.77,52.18-719.47,118.11-64.81,179.83-74.05,258.97-69.65,228.31,12.7,369.52,253.66,238.64,334.27-117.27,72.22-223.61-53.1-236.48-100.78-.52-1.93-3.37-1.48-3.29.53l.77,19.93c1.02,26.15-15.55,49.8-40.5,57.71-48.16,15.27-93.94,2.56-121.65-9.24-11.91-5.07-24.97,4.1-24.31,17.03.89,17.48,1.01,39.9-1.98,60.63-3.23,22.45-16.58,42.18-36.37,53.26l-74,41.41"/>
    <path class="cls-3" d="m1706.5,633.91c44.12,34.89,41.06,103,21.23,156.06-26.45,63.02-66.17,116.11-125.8,152.65-53.01,29.9-109.35,46.54-169.01,56.56-82.87,13.36-162.44,6.83-238.73-29.55-92.89-49.62-160.28-141.98-193.84-239.59"/>
    <path class="cls-3" d="m1358.55,638.17s-57.6-100.13-146.64-94.46"/>
    <path class="cls-2" d="m1726.39,355.43c7.64,55.43-19.89,145.87-76.25,155.82-68.23,10.92-164.35-60.02-191.05-92.14-3.04-3.65-8.95-1.24-8.57,3.5.64,8,1.05,16-.94,23.99-3.32,9.95-13.26,19.89-19.89,26.52-46.41,29.84-96.14,3.32-142.56-3.32-6.63,0-13.26,6.63-13.26,9.95-3.32,33.15,11.44,42.7-8.29,71.28"/>
    <path class="cls-4" d="m2449.11,1005.9c-1.86,5.63-6.29,16.53-16.58,26.52-11.49,11.16-24.03,15.13-29.84,16.58"/>
    <path class="cls-5" d="m2408.17,811.27l-4.57-166.39c-1.42-51.41-44.72-86.16-85.31-68.44-52.32,22.9-105.18,38.13-147.76,38.13s-57.94-27.72-57.94-69.32c0-86.82,30.72-210.3,41.38-340.26,4.26-51.79-30.24-96.54-73.99-96.54h-164.79c-38.73,0-72.1,25.33-89.63,62.38,16.46-13.47,36.46-21.38,58.09-21.38h164.79c43.74,0,78.25,44.75,73.99,96.54-10.66,129.97-41.38,253.44-41.38,340.26,0,41.6,16.81,69.32,57.94,69.32s95.43-15.23,147.76-38.13c40.59-17.72,83.89,17.03,85.31,68.44l4.57,166.39c.66,23.97-4.38,46.55-13.66,65.91,28.26-23.37,46.42-62.76,45.19-106.91Z"/>
    <path class="cls-4" d="m2376.64,852.27c.66,23.97-4.38,46.55-13.66,65.91-18.07,37.72-52.2,63.27-91.49,63.27h-253.47c-76.83,0-141.49-57.8-149.71-134.19-2.17-20.15-3.23-41.6-2.67-64.16,2.9-118.11,46.72-132,39.78-235.38-3.52-52.4-10.8-160.94-72.94-248.64-13.05-18.42-46.33-61.05-33.15-96.14,6.13-16.33,21.28-28.16,26.25-32.1,22.51-17.88,47.18-20.79,58.09-21.38h164.79c43.74,0,78.25,44.75,73.99,96.54-10.66,129.97-41.38,253.44-41.38,340.26,0,41.6,16.81,69.32,57.94,69.32s95.43-15.23,147.76-38.13c40.59-17.72,83.89,17.03,85.31,68.44l4.57,166.39Z"/>
    <line class="cls-5" x1="2001.56" y1="849.4" x2="1948.51" y2="905.76"/>
    <line class="cls-5" x1="1957.88" y1="849.4" x2="2001.56" y2="905.76"/>
  </g>
  <path class="cls-6" d="m2282.83,619.7c4.02,0,4.03-6.25,0-6.25s-4.03,6.25,0,6.25h0Z"/>
</svg>